<?xml version="1.0" encoding="utf-8"?>
<!-- Generator: Adobe Illustrator 24.0.1, SVG Export Plug-In . SVG Version: 6.00 Build 0)  -->
<svg version="1.1" id="Layer_1" xmlns="http://www.w3.org/2000/svg" xmlns:xlink="http://www.w3.org/1999/xlink" x="0px" y="0px"
	 viewBox="0 0 1024 1024" style="enable-background:new 0 0 1024 1024;" xml:space="preserve">
<style type="text/css">
	.st0{fill:#9343CE;}
	.st1{fill:#FFFFFF;}
</style>
<g>
	<path class="st0" d="M812.3,271.1l-65.3-5.5c-9.6-0.8-19.1-1.6-28.7-2.3l35.2-57.9c9.8-0.6,19.3-3.1,28.1-7.3
		c37.4-18,53.2-62.9,35.2-100.3c-18-37.4-62.9-53.2-100.3-35.2c-37.4,18-53.2,62.9-35.2,100.3l-40.8,95.8
		c-85.8-3.8-171.7-3.5-257.5,0.9L342,162.9c18-37.4,2.2-82.4-35.2-100.3s-82.4-2.2-100.3,35.2c-18,37.4-2.2,82.4,35.2,100.3
		c8.8,4.2,18.4,6.7,28.1,7.3l36,59.3l-93.1,7.3C92.6,281.5,0,381.7,0,502.1v217.5c0,119.1,90.6,218.7,209.2,229.9l98.9,9.3
		c147.1,13.9,295.1,13.4,442.1-1.4l66.1-6.7C934.2,938.8,1024,839.5,1024,721V501.2C1024,381.1,932,281.1,812.3,271.1z"/>
	<g>
		<g>
			<path class="st1" d="M711.5,388.7c-45.3,0-82.1,36.8-82.1,82.1c0,4,0.1,6.4,0.2,8.2c0.7,9.1,6.1,11.5,9.2,12.1
				c2,0.4,8.8,1.1,12.9-7.3c0.7-1.3,1.3-3,2.2-5c6.2-14.9,20.9-49.7,57.5-49.7s51.3,34.8,57.5,49.7c0.9,2.1,1.6,3.7,2.2,5
				c3.2,6.4,7.9,7.5,10.8,7.5c0.9,0,1.7-0.1,2.1-0.2c3.2-0.6,8.5-3.1,9.2-12.1c0.1-1.8,0.2-4.2,0.2-8.2
				C793.6,425.5,756.8,388.7,711.5,388.7z"/>
			<path class="st1" d="M312.5,388.7c-45.3,0-82.1,36.8-82.1,82.1c0,4,0.1,6.4,0.2,8.2c0.7,9.1,6.1,11.5,9.2,12.1
				c2,0.4,8.8,1.1,12.9-7.3c0.7-1.3,1.3-3,2.2-5c6.2-14.9,20.9-49.7,57.5-49.7s51.3,34.8,57.5,49.7c0.9,2.1,1.6,3.7,2.2,5
				c3.2,6.4,7.9,7.5,10.8,7.5c0.9,0,1.7-0.1,2.1-0.2c3.2-0.6,8.5-3.1,9.2-12.1c0.1-1.8,0.2-4.2,0.2-8.2
				C394.6,425.5,357.7,388.7,312.5,388.7z"/>
		</g>
		<path class="st1" d="M326.1,628.1h371.7c39,0,65.3,40.2,49.4,75.7c-27,60.2-90.1,134.3-236.8,134.3
			c-147.4,0-208.7-74.9-234.1-135.2C261.4,667.4,287.6,628.1,326.1,628.1z"/>
	</g>
</g>
</svg>
